ffmpeg version 6.1.1-3ubuntu5 Copyright (c) 2000-2023 the FFmpeg developers
  built with gcc 13 (Ubuntu 13.2.0-23ubuntu3)
  configuration: --prefix=/usr --extra-version=3ubuntu5 --toolchain=hardened --libdir=/usr/lib/x86_64-linux-gnu --incdir=/usr/include/x86_64-linux-gnu --arch=amd64 --enable-gpl --disable-stripping --disable-omx --enable-gnutls --enable-libaom --enable-libass --enable-libbs2b --enable-libcaca --enable-libcdio --enable-libcodec2 --enable-libdav1d --enable-libflite --enable-libfontconfig --enable-libfreetype --enable-libfribidi --enable-libglslang --enable-libgme --enable-libgsm --enable-libharfbuzz --enable-libmp3lame --enable-libmysofa --enable-libopenjpeg --enable-libopenmpt --enable-libopus --enable-librubberband --enable-libshine --enable-libsnappy --enable-libsoxr --enable-libspeex --enable-libtheora --enable-libtwolame --enable-libvidstab --enable-libvorbis --enable-libvpx --enable-libwebp --enable-libx265 --enable-libxml2 --enable-libxvid --enable-libzimg --enable-openal --enable-opencl --enable-opengl --disable-sndio --enable-libvpl --disable-libmfx --enable-libdc1394 --enable-libdrm --enable-libiec61883 --enable-chromaprint --enable-frei0r --enable-ladspa --enable-libbluray --enable-libjack --enable-libpulse --enable-librabbitmq --enable-librist --enable-libsrt --enable-libssh --enable-libsvtav1 --enable-libx264 --enable-libzmq --enable-libzvbi --enable-lv2 --enable-sdl2 --enable-libplacebo --enable-librav1e --enable-pocketsphinx --enable-librsvg --enable-libjxl --enable-shared
  libavutil      58. 29.100 / 58. 29.100
  libavcodec     60. 31.102 / 60. 31.102
  libavformat    60. 16.100 / 60. 16.100
  libavdevice    60.  3.100 / 60.  3.100
  libavfilter     9. 12.100 /  9. 12.100
  libswscale      7.  5.100 /  7.  5.100
  libswresample   4. 12.100 /  4. 12.100
  libpostproc    57.  3.100 / 57.  3.100
Splitting the commandline.
Reading option '-y' ... matched as option 'y' (overwrite output files) with argument '1'.
Reading option '-loglevel' ... matched as option 'loglevel' (set logging level) with argument 'debug'.
Reading option '-f' ... matched as option 'f' (force format) with argument 'rawvideo'.
Reading option '-pixel_format' ... matched as AVOption 'pixel_format' with argument 'bgr24'.
Reading option '-video_size' ... matched as AVOption 'video_size' with argument '640x480'.
Reading option '-r' ... matched as option 'r' (set frame rate (Hz value, fraction or abbreviation)) with argument '30'.
Reading option '-i' ... matched as output url with argument '-'.
Reading option '-c:v' ... matched as option 'c' (codec name) with argument 'libx264'.
Reading option '-pix_fmt' ... matched as option 'pix_fmt' (set pixel format) with argument 'yuv420p'.
Reading option './../video/output_2024-08-13-14-52-55.mp4' ... matched as output url.
Finished splitting the commandline.
Parsing a group of options: global .
Applying option y (overwrite output files) with argument 1.
Applying option loglevel (set logging level) with argument debug.
Successfully parsed a group of options.
Parsing a group of options: input url -.
Applying option f (force format) with argument rawvideo.
Applying option r (set frame rate (Hz value, fraction or abbreviation)) with argument 30.
Successfully parsed a group of options.
Opening an input file: -.
[rawvideo @ 0x62c340bce4c0] Opening 'fd:' for reading
[fd @ 0x62c340bceb40] Setting default whitelist 'crypto,data'
[rawvideo @ 0x62c340bce4c0] Before avformat_find_stream_info() pos: 0 bytes read:65536 seeks:0 nb_streams:1
[rawvideo @ 0x62c340bce4c0] All info found
[rawvideo @ 0x62c340bce4c0] After avformat_find_stream_info() pos: 921600 bytes read:921600 seeks:0 frames:1
Input #0, rawvideo, from 'fd:':
  Duration: N/A, start: 0.000000, bitrate: 221184 kb/s
  Stream #0:0, 1, 1/30: Video: rawvideo, 1 reference frame (BGR[24] / 0x18524742), bgr24, 640x480, 0/1, 221184 kb/s, 30 tbr, 30 tbn
Successfully opened the file.
Parsing a group of options: output url ./../video/output_2024-08-13-14-52-55.mp4.
Applying option c:v (codec name) with argument libx264.
Applying option pix_fmt (set pixel format) with argument yuv420p.
Successfully parsed a group of options.
Opening an output file: ./../video/output_2024-08-13-14-52-55.mp4.
[out#0/mp4 @ 0x62c340be0340] No explicit maps, mapping streams automatically...
[vost#0:0/libx264 @ 0x62c340be1640] Created video stream from input stream 0:0
[file @ 0x62c340be4080] Setting default whitelist 'file,crypto,data'
Successfully opened the file.
Stream mapping:
  Stream #0:0 -> #0:0 (rawvideo (native) -> h264 (libx264))
[rawvideo @ 0x62c340be0780] PACKET SIZE: 921600, STRIDE: 1920
detected 4 logical cores
[graph 0 input from stream 0:0 @ 0x62c340be56c0] Setting 'video_size' to value '640x480'
[graph 0 input from stream 0:0 @ 0x62c340be56c0] Setting 'pix_fmt' to value '3'
[graph 0 input from stream 0:0 @ 0x62c340be56c0] Setting 'time_base' to value '1/30'
[graph 0 input from stream 0:0 @ 0x62c340be56c0] Setting 'pixel_aspect' to value '0/1'
[graph 0 input from stream 0:0 @ 0x62c340be56c0] Setting 'frame_rate' to value '30/1'
[graph 0 input from stream 0:0 @ 0x62c340be56c0] w:640 h:480 pixfmt:bgr24 tb:1/30 fr:30/1 sar:0/1
[format @ 0x62c340be5c40] Setting 'pix_fmts' to value 'yuv420p'
[auto_scale_0 @ 0x62c340be7040] w:iw h:ih flags:'' interl:0
[format @ 0x62c340be5c40] auto-inserting filter 'auto_scale_0' between the filter 'Parsed_null_0' and the filter 'format'
[AVFilterGraph @ 0x62c340be0140] query_formats: 4 queried, 2 merged, 1 already done, 0 delayed
[auto_scale_0 @ 0x62c340be7040] w:640 h:480 fmt:bgr24 sar:0/1 -> w:640 h:480 fmt:yuv420p sar:0/1 flags:0x00000004
[libx264 @ 0x62c340be1a00] using mv_range_thread = 40
[libx264 @ 0x62c340be1a00] using cpu capabilities: MMX2 SSE2Fast LZCNT SSSE3 SSE4.2
[libx264 @ 0x62c340be1a00] profile High, level 3.0, 4:2:0, 8-bit
[libx264 @ 0x62c340be1a00] 264 - core 164 r3108 31e19f9 - H.264/MPEG-4 AVC codec - Copyleft 2003-2023 - http://www.videolan.org/x264.html - options: cabac=1 ref=3 deblock=1:0:0 analyse=0x3:0x113 me=hex subme=7 psy=1 psy_rd=1.00:0.00 mixed_ref=1 me_range=16 chroma_me=1 trellis=1 8x8dct=1 cqm=0 deadzone=21,11 fast_pskip=1 chroma_qp_offset=-2 threads=6 lookahead_threads=1 sliced_threads=0 nr=0 decimate=1 interlaced=0 bluray_compat=0 constrained_intra=0 bframes=3 b_pyramid=2 b_adapt=1 b_bias=0 direct=1 weightb=1 open_gop=0 weightp=2 keyint=250 keyint_min=25 scenecut=40 intra_refresh=0 rc_lookahead=40 rc=crf mbtree=1 crf=23.0 qcomp=0.60 qpmin=0 qpmax=69 qpstep=4 ip_ratio=1.40 aq=1:1.00
Output #0, mp4, to './../video/output_2024-08-13-14-52-55.mp4':
  Metadata:
    encoder         : Lavf60.16.100
  Stream #0:0, 0, 1/15360: Video: h264, 1 reference frame (avc1 / 0x31637661), yuv420p(tv, progressive), 640x480 (0x0), 0/1, q=2-31, 30 fps, 15360 tbn
    Metadata:
      encoder         : Lavc60.31.102 libx264
    Side data:
      cpb: bitrate max/min/avg: 0/0/0 buffer size: 0 vbv_delay: N/A
frame=    0 fps=0.0 q=0.0 size=       0kB time=N/A bitrate=N/A speed=N/A    [rawvideo @ 0x62c340be0780] PACKET SIZE: 921600, STRIDE: 1920
    Last message repeated 1 times
frame=    0 fps=0.0 q=0.0 size=       0kB time=N/A bitrate=N/A speed=N/A    [rawvideo @ 0x62c340be0780] PACKET SIZE: 921600, STRIDE: 1920
    Last message repeated 4 times
frame=    0 fps=0.0 q=0.0 size=       0kB time=N/A bitrate=N/A speed=N/A    [rawvideo @ 0x62c340be0780] PACKET SIZE: 921600, STRIDE: 1920
    Last message repeated 6 times
frame=    0 fps=0.0 q=0.0 size=       0kB time=N/A bitrate=N/A speed=N/A    [rawvideo @ 0x62c340be0780] PACKET SIZE: 921600, STRIDE: 1920
    Last message repeated 7 times
frame=    0 fps=0.0 q=0.0 size=       0kB time=N/A bitrate=N/A speed=N/A    [rawvideo @ 0x62c340be0780] PACKET SIZE: 921600, STRIDE: 1920
    Last message repeated 7 times
frame=    0 fps=0.0 q=0.0 size=       0kB time=N/A bitrate=N/A speed=N/A    [rawvideo @ 0x62c340be0780] PACKET SIZE: 921600, STRIDE: 1920
    Last message repeated 8 times
frame=    0 fps=0.0 q=0.0 size=       0kB time=N/A bitrate=N/A speed=N/A    [rawvideo @ 0x62c340be0780] PACKET SIZE: 921600, STRIDE: 1920
    Last message repeated 6 times
frame=    0 fps=0.0 q=0.0 size=       0kB time=N/A bitrate=N/A speed=N/A    [rawvideo @ 0x62c340be0780] PACKET SIZE: 921600, STRIDE: 1920
    Last message repeated 3 times
[libx264 @ 0x62c340be1a00] frame=   0 QP=25.03 NAL=3 Slice:I Poc:0   I:1200 P:0    SKIP:0    size=4807 bytes
[rawvideo @ 0x62c340be0780] PACKET SIZE: 921600, STRIDE: 1920
[libx264 @ 0x62c340be1a00] frame=   1 QP=22.14 NAL=2 Slice:P Poc:8   I:1134 P:66   SKIP:0    size=9678 bytes
[rawvideo @ 0x62c340be0780] PACKET SIZE: 921600, STRIDE: 1920
[libx264 @ 0x62c340be1a00] frame=   2 QP=22.00 NAL=2 Slice:B Poc:4   I:1    P:118  SKIP:1081 size=188 bytes
[rawvideo @ 0x62c340be0780] PACKET SIZE: 921600, STRIDE: 1920
[libx264 @ 0x62c340be1a00] frame=   3 QP=23.08 NAL=0 Slice:B Poc:2   I:0    P:32   SKIP:1168 size=73 bytes
[rawvideo @ 0x62c340be0780] PACKET SIZE: 921600, STRIDE: 1920
[libx264 @ 0x62c340be1a00] frame=   4 QP=23.57 NAL=0 Slice:B Poc:6   I:0    P:65   SKIP:1135 size=93 bytes
frame=    5 fps=1.1 q=29.0 size=       0kB time=00:00:00.06 bitrate=   5.8kbits/s speed=0.0148x    [rawvideo @ 0x62c340be0780] PACKET SIZE: 921600, STRIDE: 1920
[libx264 @ 0x62c340be1a00] frame=   5 QP=21.27 NAL=2 Slice:P Poc:16  I:16   P:278  SKIP:906  size=705 bytes
[rawvideo @ 0x62c340be0780] PACKET SIZE: 921600, STRIDE: 1920
[libx264 @ 0x62c340be1a00] frame=   6 QP=22.44 NAL=2 Slice:B Poc:12  I:0    P:273  SKIP:927  size=240 bytes
[rawvideo @ 0x62c340be0780] PACKET SIZE: 921600, STRIDE: 1920
[libx264 @ 0x62c340be1a00] frame=   7 QP=23.00 NAL=0 Slice:B Poc:10  I:0    P:222  SKIP:978  size=205 bytes
[rawvideo @ 0x62c340be0780] PACKET SIZE: 921600, STRIDE: 1920
[libx264 @ 0x62c340be1a00] frame=   8 QP=23.00 NAL=0 Slice:B Poc:14  I:0    P:109  SKIP:1091 size=125 bytes
[rawvideo @ 0x62c340be0780] PACKET SIZE: 921600, STRIDE: 1920
[libx264 @ 0x62c340be1a00] frame=   9 QP=20.98 NAL=2 Slice:P Poc:24  I:12   P:136  SKIP:1052 size=443 bytes
[rawvideo @ 0x62c340be0780] PACKET SIZE: 921600, STRIDE: 1920
[libx264 @ 0x62c340be1a00] frame=  10 QP=22.26 NAL=2 Slice:B Poc:20  I:0    P:170  SKIP:1030 size=207 bytes
[rawvideo @ 0x62c340be0780] PACKET SIZE: 921600, STRIDE: 1920
[libx264 @ 0x62c340be1a00] frame=  11 QP=23.62 NAL=0 Slice:B Poc:18  I:1    P:115  SKIP:1084 size=136 bytes
[rawvideo @ 0x62c340be0780] PACKET SIZE: 921600, STRIDE: 1920
[libx264 @ 0x62c340be1a00] frame=  12 QP=23.57 NAL=0 Slice:B Poc:22  I:0    P:32   SKIP:1168 size=67 bytes
[rawvideo @ 0x62c340be0780] PACKET SIZE: 921600, STRIDE: 1920
[libx264 @ 0x62c340be1a00] frame=  13 QP=20.85 NAL=2 Slice:P Poc:32  I:17   P:161  SKIP:1022 size=528 bytes
frame=   13 fps=2.6 q=29.0 size=       0kB time=00:00:00.36 bitrate=   1.0kbits/s speed=0.0726x    [rawvideo @ 0x62c340be0780] PACKET SIZE: 921600, STRIDE: 1920
[libx264 @ 0x62c340be1a00] frame=  14 QP=22.00 NAL=2 Slice:B Poc:28  I:1    P:142  SKIP:1057 size=160 bytes
[rawvideo @ 0x62c340be0780] PACKET SIZE: 921600, STRIDE: 1920
[libx264 @ 0x62c340be1a00] frame=  15 QP=20.14 NAL=0 Slice:B Poc:26  I:0    P:93   SKIP:1107 size=103 bytes
[rawvideo @ 0x62c340be0780] PACKET SIZE: 921600, STRIDE: 1920
[libx264 @ 0x62c340be1a00] frame=  16 QP=23.00 NAL=0 Slice:B Poc:30  I:0    P:28   SKIP:1172 size=54 bytes
[rawvideo @ 0x62c340be0780] PACKET SIZE: 921600, STRIDE: 1920
[libx264 @ 0x62c340be1a00] frame=  17 QP=21.26 NAL=2 Slice:P Poc:40  I:5    P:172  SKIP:1023 size=506 bytes
[rawvideo @ 0x62c340be0780] PACKET SIZE: 921600, STRIDE: 1920
[libx264 @ 0x62c340be1a00] frame=  18 QP=22.28 NAL=2 Slice:B Poc:36  I:0    P:147  SKIP:1053 size=142 bytes
[rawvideo @ 0x62c340be0780] PACKET SIZE: 921600, STRIDE: 1920
[libx264 @ 0x62c340be1a00] frame=  19 QP=23.00 NAL=0 Slice:B Poc:34  I:0    P:142  SKIP:1058 size=129 bytes
frame=   19 fps=3.4 q=29.0 size=       0kB time=00:00:00.56 bitrate=   0.7kbits/s speed=0.101x    [rawvideo @ 0x62c340be0780] PACKET SIZE: 921600, STRIDE: 1920
[libx264 @ 0x62c340be1a00] frame=  20 QP=23.00 NAL=0 Slice:B Poc:38  I:0    P:49   SKIP:1151 size=76 bytes
[rawvideo @ 0x62c340be0780] PACKET SIZE: 921600, STRIDE: 1920
[libx264 @ 0x62c340be1a00] frame=  21 QP=21.45 NAL=2 Slice:P Poc:48  I:3    P:187  SKIP:1010 size=495 bytes
[rawvideo @ 0x62c340be0780] PACKET SIZE: 921600, STRIDE: 1920
[libx264 @ 0x62c340be1a00] frame=  22 QP=23.00 NAL=2 Slice:B Poc:44  I:0    P:218  SKIP:982  size=181 bytes
[rawvideo @ 0x62c340be0780] PACKET SIZE: 921600, STRIDE: 1920
[libx264 @ 0x62c340be1a00] frame=  23 QP=23.00 NAL=0 Slice:B Poc:42  I:0    P:176  SKIP:1024 size=147 bytes
[rawvideo @ 0x62c340be0780] PACKET SIZE: 921600, STRIDE: 1920
[libx264 @ 0x62c340be1a00] frame=  24 QP=23.00 NAL=0 Slice:B Poc:46  I:0    P:71   SKIP:1129 size=91 bytes
[rawvideo @ 0x62c340be0780] PACKET SIZE: 921600, STRIDE: 1920
[libx264 @ 0x62c340be1a00] frame=  25 QP=20.93 NAL=2 Slice:P Poc:56  I:5    P:143  SKIP:1052 size=342 bytes
frame=   25 fps=4.1 q=29.0 size=       0kB time=00:00:00.76 bitrate=   0.5kbits/s speed=0.124x    [rawvideo @ 0x62c340be0780] PACKET SIZE: 921600, STRIDE: 1920
[libx264 @ 0x62c340be1a00] frame=  26 QP=21.59 NAL=2 Slice:B Poc:52  I:0    P:167  SKIP:1033 size=180 bytes
[rawvideo @ 0x62c340be0780] PACKET SIZE: 921600, STRIDE: 1920
[libx264 @ 0x62c340be1a00] frame=  27 QP=23.00 NAL=0 Slice:B Poc:50  I:1    P:136  SKIP:1063 size=136 bytes
[rawvideo @ 0x62c340be0780] PACKET SIZE: 921600, STRIDE: 1920
[libx264 @ 0x62c340be1a00] frame=  28 QP=23.14 NAL=0 Slice:B Poc:54  I:0    P:67   SKIP:1133 size=86 bytes
[rawvideo @ 0x62c340be0780] PACKET SIZE: 921600, STRIDE: 1920
[libx264 @ 0x62c340be1a00] frame=  29 QP=21.38 NAL=2 Slice:P Poc:64  I:2    P:116  SKIP:1082 size=277 bytes
[rawvideo @ 0x62c340be0780] PACKET SIZE: 921600, STRIDE: 1920
[libx264 @ 0x62c340be1a00] frame=  30 QP=22.89 NAL=2 Slice:B Poc:60  I:0    P:109  SKIP:1091 size=133 bytes
[rawvideo @ 0x62c340be0780] PACKET SIZE: 921600, STRIDE: 1920
[libx264 @ 0x62c340be1a00] frame=  31 QP=24.00 NAL=0 Slice:B Poc:58  I:0    P:75   SKIP:1125 size=88 bytes
frame=   31 fps=4.6 q=29.0 size=       0kB time=00:00:00.96 bitrate=   0.4kbits/s speed=0.143x    [rawvideo @ 0x62c340be0780] PACKET SIZE: 921600, STRIDE: 1920
[libx264 @ 0x62c340be1a00] frame=  32 QP=23.00 NAL=0 Slice:B Poc:62  I:0    P:32   SKIP:1168 size=58 bytes
[in#0/rawvideo @ 0x62c340bce3c0] EOF while reading input
[in#0/rawvideo @ 0x62c340bce3c0] Terminating demuxer thread
[vist#0:0/rawvideo @ 0x62c340be0600] Decoder thread received EOF packet
[vist#0:0/rawvideo @ 0x62c340be0600] Decoder returned EOF, finishing
[vist#0:0/rawvideo @ 0x62c340be0600] Terminating decoder thread
[libx264 @ 0x62c340be1a00] frame=  33 QP=20.49 NAL=2 Slice:P Poc:72  I:5    P:89   SKIP:1106 size=236 bytes
[libx264 @ 0x62c340be1a00] frame=  34 QP=23.00 NAL=2 Slice:B Poc:68  I:0    P:71   SKIP:1129 size=112 bytes
[libx264 @ 0x62c340be1a00] frame=  35 QP=23.70 NAL=0 Slice:B Poc:66  I:0    P:37   SKIP:1163 size=68 bytes
[libx264 @ 0x62c340be1a00] frame=  36 QP=23.00 NAL=0 Slice:B Poc:70  I:0    P:43   SKIP:1157 size=70 bytes
[libx264 @ 0x62c340be1a00] frame=  37 QP=21.67 NAL=2 Slice:P Poc:80  I:6    P:296  SKIP:898  size=814 bytes
[libx264 @ 0x62c340be1a00] frame=  38 QP=22.96 NAL=2 Slice:B Poc:76  I:0    P:263  SKIP:937  size=232 bytes
[libx264 @ 0x62c340be1a00] frame=  39 QP=23.00 NAL=0 Slice:B Poc:74  I:0    P:200  SKIP:1000 size=176 bytes
[libx264 @ 0x62c340be1a00] frame=  40 QP=23.00 NAL=0 Slice:B Poc:78  I:0    P:197  SKIP:1003 size=172 bytes
[libx264 @ 0x62c340be1a00] frame=  41 QP=21.17 NAL=2 Slice:P Poc:88  I:18   P:266  SKIP:916  size=760 bytes
[libx264 @ 0x62c340be1a00] frame=  42 QP=22.49 NAL=2 Slice:B Poc:84  I:1    P:304  SKIP:895  size=262 bytes
[libx264 @ 0x62c340be1a00] frame=  43 QP=21.92 NAL=0 Slice:B Poc:82  I:0    P:196  SKIP:1004 size=169 bytes
[libx264 @ 0x62c340be1a00] frame=  44 QP=22.81 NAL=0 Slice:B Poc:86  I:0    P:62   SKIP:1138 size=96 bytes
[libx264 @ 0x62c340be1a00] frame=  45 QP=20.77 NAL=2 Slice:P Poc:96  I:8    P:174  SKIP:1018 size=429 bytes
[libx264 @ 0x62c340be1a00] frame=  46 QP=22.00 NAL=2 Slice:B Poc:92  I:0    P:171  SKIP:1029 size=179 bytes
[libx264 @ 0x62c340be1a00] frame=  47 QP=23.76 NAL=0 Slice:B Poc:90  I:0    P:98   SKIP:1102 size=114 bytes
[libx264 @ 0x62c340be1a00] frame=  48 QP=24.00 NAL=0 Slice:B Poc:94  I:1    P:34   SKIP:1165 size=66 bytes
[libx264 @ 0x62c340be1a00] frame=  49 QP=21.20 NAL=2 Slice:P Poc:104 I:4    P:129  SKIP:1067 size=323 bytes
[libx264 @ 0x62c340be1a00] frame=  50 QP=22.00 NAL=2 Slice:B Poc:100 I:0    P:138  SKIP:1062 size=153 bytes
[libx264 @ 0x62c340be1a00] frame=  51 QP=23.00 NAL=0 Slice:B Poc:98  I:0    P:85   SKIP:1115 size=99 bytes
[libx264 @ 0x62c340be1a00] frame=  52 QP=23.00 NAL=0 Slice:B Poc:102 I:0    P:23   SKIP:1177 size=53 bytes
[libx264 @ 0x62c340be1a00] frame=  53 QP=20.70 NAL=2 Slice:P Poc:112 I:2    P:153  SKIP:1045 size=321 bytes
[libx264 @ 0x62c340be1a00] frame=  54 QP=22.00 NAL=2 Slice:B Poc:108 I:0    P:174  SKIP:1026 size=175 bytes
[libx264 @ 0x62c340be1a00] frame=  55 QP=23.00 NAL=0 Slice:B Poc:106 I:0    P:103  SKIP:1097 size=114 bytes
[libx264 @ 0x62c340be1a00] frame=  56 QP=23.00 NAL=0 Slice:B Poc:110 I:0    P:90   SKIP:1110 size=101 bytes
[libx264 @ 0x62c340be1a00] frame=  57 QP=21.24 NAL=2 Slice:P Poc:120 I:0    P:147  SKIP:1053 size=256 bytes
[libx264 @ 0x62c340be1a00] frame=  58 QP=23.00 NAL=2 Slice:B Poc:116 I:0    P:180  SKIP:1020 size=167 bytes
[libx264 @ 0x62c340be1a00] frame=  59 QP=23.00 NAL=0 Slice:B Poc:114 I:0    P:88   SKIP:1112 size=108 bytes
[libx264 @ 0x62c340be1a00] frame=  60 QP=23.00 NAL=0 Slice:B Poc:118 I:0    P:116  SKIP:1084 size=116 bytes
[libx264 @ 0x62c340be1a00] frame=  61 QP=21.64 NAL=2 Slice:P Poc:128 I:5    P:177  SKIP:1018 size=366 bytes
[libx264 @ 0x62c340be1a00] frame=  62 QP=22.00 NAL=2 Slice:B Poc:124 I:0    P:182  SKIP:1018 size=170 bytes
[libx264 @ 0x62c340be1a00] frame=  63 QP=23.00 NAL=0 Slice:B Poc:122 I:0    P:165  SKIP:1035 size=146 bytes
[libx264 @ 0x62c340be1a00] frame=  64 QP=23.00 NAL=0 Slice:B Poc:126 I:0    P:65   SKIP:1135 size=80 bytes
[libx264 @ 0x62c340be1a00] frame=  65 QP=21.01 NAL=2 Slice:P Poc:136 I:8    P:225  SKIP:967  size=449 bytes
[libx264 @ 0x62c340be1a00] frame=  66 QP=22.62 NAL=2 Slice:B Poc:132 I:0    P:280  SKIP:920  size=221 bytes
[libx264 @ 0x62c340be1a00] frame=  67 QP=23.00 NAL=0 Slice:B Poc:130 I:0    P:217  SKIP:983  size=172 bytes
[libx264 @ 0x62c340be1a00] frame=  68 QP=23.00 NAL=0 Slice:B Poc:134 I:0    P:77   SKIP:1123 size=88 bytes
[libx264 @ 0x62c340be1a00] frame=  69 QP=20.57 NAL=2 Slice:P Poc:144 I:13   P:189  SKIP:998  size=381 bytes
[libx264 @ 0x62c340be1a00] frame=  70 QP=22.30 NAL=2 Slice:B Poc:140 I:0    P:207  SKIP:993  size=218 bytes
[libx264 @ 0x62c340be1a00] frame=  71 QP=23.98 NAL=0 Slice:B Poc:138 I:0    P:214  SKIP:986  size=178 bytes
[libx264 @ 0x62c340be1a00] frame=  72 QP=23.00 NAL=0 Slice:B Poc:142 I:0    P:137  SKIP:1063 size=128 bytes
[libx264 @ 0x62c340be1a00] frame=  73 QP=21.93 NAL=2 Slice:P Poc:152 I:6    P:249  SKIP:945  size=499 bytes
[libx264 @ 0x62c340be1a00] frame=  74 QP=22.03 NAL=2 Slice:B Poc:148 I:1    P:292  SKIP:907  size=243 bytes
[libx264 @ 0x62c340be1a00] frame=  75 QP=23.00 NAL=0 Slice:B Poc:146 I:0    P:239  SKIP:961  size=175 bytes
[libx264 @ 0x62c340be1a00] frame=  76 QP=23.00 NAL=0 Slice:B Poc:150 I:0    P:159  SKIP:1041 size=135 bytes
[libx264 @ 0x62c340be1a00] frame=  77 QP=22.42 NAL=2 Slice:P Poc:160 I:5    P:145  SKIP:1050 size=311 bytes
[libx264 @ 0x62c340be1a00] frame=  78 QP=22.32 NAL=2 Slice:B Poc:156 I:2    P:158  SKIP:1040 size=213 bytes
[libx264 @ 0x62c340be1a00] frame=  79 QP=24.00 NAL=0 Slice:B Poc:154 I:0    P:136  SKIP:1064 size=119 bytes
[libx264 @ 0x62c340be1a00] frame=  80 QP=23.00 NAL=0 Slice:B Poc:158 I:0    P:97   SKIP:1103 size=105 bytes
[libx264 @ 0x62c340be1a00] frame=  81 QP=21.58 NAL=2 Slice:P Poc:164 I:5    P:102  SKIP:1093 size=178 bytes
[libx264 @ 0x62c340be1a00] frame=  82 QP=23.49 NAL=0 Slice:B Poc:162 I:0    P:148  SKIP:1052 size=140 bytes
[out#0/mp4 @ 0x62c340be0340] All streams finished
[out#0/mp4 @ 0x62c340be0340] Terminating muxer thread
[AVIOContext @ 0x62c340be4140] Statistics: 34083 bytes written, 2 seeks, 4 writeouts
[out#0/mp4 @ 0x62c340be0340] Output file #0 (./../video/output_2024-08-13-14-52-55.mp4):
[out#0/mp4 @ 0x62c340be0340]   Output stream #0:0 (video): 83 frames encoded; 83 packets muxed (32224 bytes); 
[out#0/mp4 @ 0x62c340be0340]   Total: 83 packets (32224 bytes) muxed
[out#0/mp4 @ 0x62c340be0340] video:31kB audio:0kB subtitle:0kB other streams:0kB global headers:0kB muxing overhead: 5.756579%
frame=   83 fps= 11 q=-1.0 Lsize=      33kB time=00:00:02.66 bitrate= 102.2kbits/s speed=0.353x    
[libx264 @ 0x62c340be1a00] frame I:1     Avg QP:25.03  size:  4807
[libx264 @ 0x62c340be1a00] frame P:21    Avg QP:21.27  size:   871
[libx264 @ 0x62c340be1a00] frame B:61    Avg QP:22.85  size:   138
[libx264 @ 0x62c340be1a00] consecutive B-frames:  1.2%  2.4%  0.0% 96.4%
[libx264 @ 0x62c340be1a00] mb I  I16..4: 31.7% 59.8%  8.5%
[libx264 @ 0x62c340be1a00] mb P  I16..4:  2.5%  2.0%  0.6%  P16..4: 11.6%  0.8%  1.8%  0.0%  0.0%    skip:80.6%
[libx264 @ 0x62c340be1a00] mb B  I16..4:  0.0%  0.0%  0.0%  B16..8: 11.2%  0.0%  0.0%  direct: 0.0%  skip:88.7%  L0:21.1% L1:78.9% BI: 0.0%
[libx264 @ 0x62c340be1a00] 8x8 transform intra:49.4% inter:87.9%
[libx264 @ 0x62c340be1a00] coded y,uvDC,uvAC intra: 27.7% 31.1% 8.3% inter: 0.3% 1.2% 0.0%
[libx264 @ 0x62c340be1a00] i16 v,h,dc,p:  7% 25%  3% 64%
[libx264 @ 0x62c340be1a00] i8 v,h,dc,ddl,ddr,vr,hd,vl,hu: 43% 13% 16%  4%  3%  6%  3%  2%  9%
[libx264 @ 0x62c340be1a00] i4 v,h,dc,ddl,ddr,vr,hd,vl,hu: 26% 13% 20%  7%  8% 13%  4%  2%  7%
[libx264 @ 0x62c340be1a00] i8c dc,h,v,p: 72% 13% 13%  2%
[libx264 @ 0x62c340be1a00] Weighted P-Frames: Y:4.8% UV:4.8%
[libx264 @ 0x62c340be1a00] ref P L0: 77.8%  5.5% 13.4%  3.3%
[libx264 @ 0x62c340be1a00] ref B L0: 79.0% 19.3%  1.7%
[libx264 @ 0x62c340be1a00] ref B L1: 95.7%  4.3%
[libx264 @ 0x62c340be1a00] kb/s:91.19
[in#0/rawvideo @ 0x62c340bce3c0] Input file #0 (fd:):
[in#0/rawvideo @ 0x62c340bce3c0]   Input stream #0:0 (video): 83 packets read (76492800 bytes); 83 frames decoded; 0 decode errors; 
[in#0/rawvideo @ 0x62c340bce3c0]   Total: 83 packets (76492800 bytes) demuxed
[AVIOContext @ 0x62c340bdedc0] Statistics: 76492800 bytes read, 0 seeks
Exiting normally, received signal 2.
